<svg width="415" height="283" viewBox="0 0 415 283" fill="none" xmlns="http://www.w3.org/2000/svg">
<g clip-path="url(#clip0_596_3)">
<path d="M169.693 130.02C172.035 133.133 172.108 137.399 169.874 140.591L116.699 216.58C112.525 222.545 116.792 230.74 124.073 230.74H179.536C186.463 230.74 190.794 238.237 187.332 244.237L167.717 278.237C166.109 281.023 163.138 282.74 159.921 282.74H70.4288C70.4116 282.74 70.3956 282.748 70.3858 282.762C70.376 282.776 70.3599 282.785 70.3428 282.785H9.01562C1.74236 282.785 -2.52684 274.604 1.63254 268.638L125.514 90.9324C129.016 85.9076 136.406 85.7739 140.089 90.6687L169.693 130.02ZM313.484 157.132C311.253 160.346 311.353 164.633 313.732 167.738L389.933 267.208C394.487 273.152 390.213 281.734 382.726 281.681L310.488 281.175C307.695 281.155 305.069 279.84 303.381 277.615L104.611 15.6328C100.096 9.68287 104.375 1.14068 111.844 1.19308L182.145 1.68625C184.924 1.70574 187.537 3.0073 189.227 5.21284L260.028 97.6349C263.708 102.438 270.984 102.315 274.499 97.3894L298.348 63.9673C302.599 58.0101 298.341 49.7396 291.022 49.7396H263.182C256.151 49.7396 251.835 42.0372 255.507 36.0402L274.486 5.04022C276.122 2.36853 279.029 0.739602 282.162 0.739602H343.432C343.454 0.739602 343.474 0.72897 343.487 0.711089C343.499 0.693422 343.52 0.682819 343.541 0.68258L405.28 0.000591287C412.591 -0.0801624 416.942 8.12773 412.772 14.133L313.484 157.132Z" fill="url(#paint0_linear_596_3)"/>
</g>
<defs>
<linearGradient id="paint0_linear_596_3" x1="207.198" y1="282.785" x2="207.198" y2="0" gradientUnits="userSpaceOnUse">
<stop offset="0.201923" stop-color="#0F2C64"/>
<stop offset="1" stop-color="#859DCE"/>
</linearGradient>
<clipPath id="clip0_596_3">
<rect width="415" height="283" fill="white"/>
</clipPath>
</defs>
</svg>
