<svg width="133" height="130" viewBox="0 0 133 130" fill="none" xmlns="http://www.w3.org/2000/svg">
<g clip-path="url(#clip0_1117_455)">
<path d="M133 64.9985C133 69.85 126.22 73.8686 125.188 78.4051C124.124 83.0882 128.462 89.6464 126.429 93.8709C124.355 98.1671 116.505 98.8503 113.558 102.541C110.598 106.248 111.668 114.054 107.966 117.015C104.277 119.96 96.9104 117.19 92.616 119.261C88.3932 121.302 85.9825 128.809 81.3013 129.876C76.7636 130.905 71.3464 125.208 66.5031 125.208C61.6535 125.208 56.2332 130.905 51.7017 129.876C47.0175 128.809 44.6067 121.302 40.384 119.261C36.0895 117.19 28.7232 119.96 25.0338 117.015C21.3288 114.054 22.4016 106.248 19.4419 102.541C16.4947 98.8503 8.64189 98.1671 6.57107 93.8709C4.53456 89.6464 8.87582 83.0882 7.81234 78.4051C6.77693 73.8686 0 69.85 0 64.9985C0 60.1531 6.77693 56.1315 7.81234 51.595C8.87582 46.9088 4.53456 40.3506 6.57107 36.1261C8.64189 31.833 16.501 31.1497 19.4419 27.4587C22.4047 23.7522 21.3288 15.946 25.0338 12.9851C28.7232 10.0398 36.0895 12.8104 40.384 10.7387C44.6067 8.69825 47.0175 1.18843 51.7017 0.124511C56.2332 -0.905086 61.6535 4.7889 66.5031 4.7889C71.3464 4.7889 76.7636 -0.905086 81.3013 0.124511C85.9825 1.18843 88.3932 8.69825 92.6222 10.7387C96.9104 12.8104 104.277 10.0398 107.966 12.9851C111.668 15.946 110.598 23.7522 113.558 27.4587C116.505 31.1497 124.355 31.833 126.429 36.1261C128.462 40.3537 124.124 46.9119 125.188 51.595C126.22 56.1315 133 60.1531 133 64.9985Z" fill="#F3FFBD"/>
<path d="M28.5914 44.2218C28.3241 44.7168 28.016 45.1215 27.6672 45.436C27.3117 45.7469 26.9223 45.9629 26.4991 46.0838C26.0692 46.2011 25.6072 46.2201 25.113 46.1407C24.6189 46.0614 24.1045 45.8774 23.57 45.5887C23.0156 45.2894 22.5632 44.9513 22.2127 44.5744C21.8657 44.191 21.6168 43.7838 21.4659 43.3529C21.3085 42.9184 21.2554 42.4721 21.3068 42.0139C21.3582 41.5558 21.5086 41.0958 21.758 40.6338C21.9505 40.2775 22.1749 39.9725 22.4312 39.7188C22.6875 39.4651 22.9669 39.2793 23.2692 39.1613C23.5686 39.0332 23.8808 38.9759 24.2059 38.9895C24.5244 38.9996 24.8471 39.0886 25.174 39.2566L24.8501 40.5904C24.5567 40.4234 24.2753 40.3525 24.0061 40.3775C23.7368 40.4026 23.4957 40.494 23.2827 40.6517C23.0732 40.8028 22.9043 40.9972 22.776 41.2347C22.662 41.4459 22.5908 41.6803 22.5626 41.9378C22.5379 42.1887 22.5734 42.4465 22.6691 42.7113C22.7647 42.976 22.9376 43.2399 23.1877 43.5028C23.4313 43.7622 23.7708 44.0094 24.2063 44.2447C24.7607 44.544 25.2522 44.7072 25.6809 44.7341C26.1131 44.7544 26.4883 44.6673 26.8066 44.4726C27.1218 44.2678 27.3774 43.9839 27.5734 43.6209C27.7729 43.2514 27.8589 42.9185 27.8314 42.6223C27.7972 42.3226 27.6847 42.0573 27.494 41.8264C27.2967 41.592 27.0564 41.3898 26.7732 41.2198L27.5547 40.2226C27.8943 40.4145 28.1891 40.642 28.4392 40.9049C28.6893 41.1678 28.8695 41.4654 28.9799 41.7978C29.0938 42.1235 29.1225 42.4885 29.0661 42.8928C29.0098 43.2971 28.8515 43.7401 28.5914 44.2218ZM32.8685 37.8164C32.5309 38.2378 32.1635 38.5585 31.7663 38.7784C31.369 38.9984 30.9508 39.1246 30.5115 39.1571C30.0711 39.179 29.6173 39.1037 29.1501 38.9312C28.6828 38.7587 28.2122 38.4825 27.738 38.1027C27.0532 37.5541 26.5822 36.9845 26.3249 36.394C26.0617 35.7988 25.9831 35.2072 26.0889 34.6193C26.1947 34.0314 26.4563 33.4769 26.8737 32.956C27.1972 32.5521 27.5576 32.2402 27.9549 32.0203C28.3462 31.7957 28.7621 31.6724 29.2026 31.6504C29.6418 31.6179 30.1033 31.6897 30.5869 31.8657C31.0647 32.0371 31.5465 32.3174 32.0323 32.7066C32.5181 33.0958 32.8967 33.5048 33.1682 33.9337C33.4385 34.3521 33.6086 34.7815 33.6785 35.2219C33.7427 35.6577 33.7084 36.0963 33.5757 36.5378C33.4419 36.9688 33.2062 37.395 32.8685 37.8164ZM31.9941 37.0726C32.2614 36.739 32.4051 36.3976 32.4253 36.0486C32.4443 35.689 32.3485 35.3288 32.1379 34.9679C31.932 34.6011 31.6095 34.2419 31.1705 33.8902C30.7198 33.5291 30.2843 33.2811 29.8639 33.1461C29.4435 33.0111 29.0575 32.995 28.7061 33.0978C28.3535 33.1901 28.0435 33.4031 27.7762 33.7367C27.523 34.0528 27.3845 34.3935 27.3609 34.759C27.336 35.1139 27.4324 35.4794 27.65 35.8555C27.8617 36.227 28.193 36.5932 28.6437 36.9543C28.9832 37.2263 29.3127 37.4327 29.6324 37.5734C29.9462 37.7095 30.2425 37.7835 30.5213 37.7954C30.8047 37.8015 31.0706 37.7454 31.319 37.6273C31.5721 37.5033 31.7971 37.3184 31.9941 37.0726ZM36.1652 33.7416L31.3887 28.0569L32.8099 26.8628L39.0851 28.8049L39.1626 28.7398L35.5403 24.5686L36.5997 23.6784L41.3762 29.3631L40.0842 30.4487L33.5509 28.4442L33.4648 28.5166L37.2246 32.8514L36.1652 33.7416ZM44.4021 27.3634L40.6629 20.9486L41.8973 20.2291L45.6364 26.6439L44.4021 27.3634ZM39.3641 23.099L38.7579 22.059L43.812 19.113L44.4182 20.153L39.3641 23.099ZM47.6328 25.5242L47.3106 17.6753L49.2483 16.9156L54.3465 22.8921L52.9011 23.4587L48.7727 18.3225L48.6261 18.38L49.0677 24.9617L47.6328 25.5242ZM48.3416 23.6029L47.9762 22.6707L52.3333 20.9625L52.6987 21.8947L48.3416 23.6029ZM58.7337 22.1299C58.1817 22.2384 57.6735 22.2579 57.2089 22.1887C56.7429 22.1121 56.3287 21.9488 55.9662 21.699C55.6023 21.4418 55.2939 21.0973 55.0409 20.6655C54.788 20.2337 54.6029 19.7197 54.4858 19.1236C54.3644 18.5054 54.3377 17.9412 54.4056 17.431C54.4809 16.9194 54.6369 16.4684 54.8736 16.078C55.1088 15.6802 55.4196 15.3554 55.8058 15.1038C56.192 14.8521 56.6427 14.6757 57.1579 14.5745C57.5553 14.4964 57.9334 14.4757 58.2921 14.5122C58.6509 14.5487 58.972 14.6462 59.2553 14.8045C59.5445 14.9541 59.7873 15.1587 59.9835 15.4182C60.1782 15.6704 60.3147 15.9761 60.3929 16.3352L59.1575 16.9333C59.0998 16.6007 58.9757 16.3385 58.7851 16.1466C58.5946 15.9547 58.3707 15.8267 58.1135 15.7626C57.8637 15.697 57.6063 15.6902 57.3414 15.7423C57.1059 15.7885 56.8798 15.8826 56.6631 16.0246C56.4537 16.165 56.2773 16.3564 56.1338 16.5986C55.9903 16.8408 55.8966 17.142 55.8527 17.5022C55.8074 17.8551 55.8324 18.2744 55.9278 18.7601C56.0492 19.3783 56.2358 19.8614 56.4876 20.2093C56.7468 20.5559 57.0527 20.7901 57.4053 20.9119C57.7638 21.0249 58.1454 21.0417 58.5502 20.9622C58.9623 20.8812 59.2739 20.7359 59.4849 20.5263C59.6946 20.3094 59.8278 20.0539 59.8847 19.7599C59.9402 19.4586 59.9435 19.1445 59.8946 18.8178L61.1611 18.7869C61.2289 19.171 61.2409 19.5432 61.197 19.9034C61.1531 20.2636 61.038 20.592 60.8516 20.8884C60.6726 21.1835 60.4092 21.4378 60.0613 21.6513C59.7135 21.8649 59.2709 22.0244 58.7337 22.1299ZM64.7634 21.1927L64.511 13.772L65.9389 13.7234L66.1914 21.1442L64.7634 21.1927ZM62.3482 15.0501L62.3072 13.847L68.1539 13.6481L68.1948 14.8511L62.3482 15.0501ZM75.929 22.2721C75.5034 22.1823 75.1274 22.0569 74.8011 21.896C74.4822 21.7367 74.2121 21.5455 73.9909 21.3225C73.777 21.101 73.6113 20.8514 73.4937 20.5736C73.376 20.2958 73.3057 19.9935 73.2827 19.6667C73.2671 19.3414 73.2972 18.999 73.3732 18.6394L74.3122 14.1925L75.7101 14.4877L74.7827 18.8796C74.6975 19.2832 74.693 19.631 74.7693 19.9231C74.8472 20.2078 75.0042 20.4441 75.2405 20.632C75.4784 20.8125 75.7954 20.9446 76.1917 21.0283C76.5953 21.1135 76.9387 21.1209 77.2218 21.0504C77.5123 20.9814 77.7515 20.8288 77.9394 20.5925C78.1273 20.3562 78.2638 20.0363 78.3491 19.6327L79.2765 15.2408L80.6634 15.5336L79.7244 19.9806C79.526 20.9199 79.104 21.5935 78.4583 22.0014C77.8215 22.4035 76.9784 22.4937 75.929 22.2721ZM83.5663 24.5707C83.1162 24.3836 82.7332 24.1716 82.4174 23.9347C82.0988 23.7048 81.8522 23.448 81.6778 23.1643C81.5131 22.8765 81.4197 22.5737 81.3975 22.2558C81.3782 21.9311 81.4399 21.5872 81.5827 21.2242L82.8887 21.365C82.7436 21.6945 82.6977 22.0004 82.751 22.2824C82.8072 22.5576 82.9487 22.8032 83.1756 23.0194C83.4095 23.2384 83.703 23.4214 84.0562 23.5682C84.3955 23.7092 84.6967 23.7857 84.9598 23.7976C85.2298 23.8124 85.4525 23.775 85.6278 23.6854C85.806 23.5889 85.9325 23.4507 86.0074 23.2706C86.0909 23.0698 86.0844 22.8803 85.9879 22.7021C85.8942 22.517 85.7386 22.3345 85.521 22.1547C85.3131 21.9708 85.0678 21.7795 84.7849 21.5807C84.4772 21.3634 84.1794 21.1421 83.8913 20.9168C83.6101 20.6943 83.3697 20.4522 83.1698 20.1904C82.97 19.9287 82.8394 19.647 82.778 19.3453C82.7264 19.0396 82.7769 18.7032 82.9295 18.3361C83.1022 17.9206 83.3543 17.6071 83.6859 17.3957C84.0203 17.1773 84.4195 17.0671 84.8833 17.065C85.357 17.0588 85.8708 17.1709 86.4248 17.4012C86.972 17.6287 87.4153 17.9104 87.7548 18.2465C88.0972 18.5756 88.3178 18.9435 88.4168 19.3502C88.5158 19.7568 88.4844 20.1742 88.3227 20.6024L86.9898 20.4383C87.0848 20.2097 87.1288 19.9965 87.1217 19.7986C87.1244 19.5967 87.0796 19.4116 86.9871 19.2432C86.8976 19.0679 86.7673 18.9122 86.5965 18.7762C86.4325 18.643 86.2293 18.5261 85.9869 18.4253C85.703 18.3073 85.4378 18.2417 85.1915 18.2287C84.9521 18.2185 84.7481 18.2596 84.5798 18.3521C84.4143 18.4376 84.2941 18.5704 84.2192 18.7504C84.1271 18.9721 84.1368 19.1832 84.2483 19.3839C84.3598 19.5846 84.5333 19.7826 84.7689 19.978C85.0142 20.1693 85.2838 20.3707 85.5777 20.5822C85.8495 20.7683 86.1157 20.9683 86.376 21.1821C86.6433 21.3988 86.8749 21.6332 87.0706 21.8851C87.2664 22.1371 87.3887 22.4194 87.4374 22.732C87.4959 23.0406 87.4475 23.3819 87.292 23.7559C87.125 24.1576 86.8709 24.4661 86.5295 24.6816C86.1881 24.8971 85.7682 24.9987 85.2697 24.9864C84.7713 24.9741 84.2035 24.8356 83.5663 24.5707ZM93.6094 30.5287L93.4015 28.783L92.0087 27.6968L93.081 26.3217L92.8731 24.576L94.61 24.3612L95.6893 22.9773L97.082 24.0635L98.8258 23.8398L99.0337 25.5855L100.418 26.6648L99.3384 28.0487L99.5621 29.7924L97.8163 30.0003L96.7371 31.3843L95.3532 30.305L93.6094 30.5287ZM100.379 36.4342L106.287 31.938L107.146 33.066L101.237 37.5623L100.379 36.4342ZM103.086 35.1801L104.026 34.4648L106.635 37.8937L105.695 38.609L103.086 35.1801ZM105.7 33.1908L106.676 32.4483L109.557 36.2353L108.582 36.9778L105.7 33.1908ZM105.689 44.7912C105.44 44.3118 105.296 43.8459 105.256 43.3937C105.216 42.9414 105.27 42.5079 105.418 42.0931C105.577 41.6816 105.829 41.2972 106.177 40.94C106.524 40.5828 106.967 40.2644 107.506 39.9849C108.285 39.5812 108.997 39.3814 109.641 39.3855C110.292 39.3861 110.864 39.554 111.359 39.889C111.854 40.224 112.254 40.6878 112.562 41.2805C112.8 41.74 112.939 42.1958 112.979 42.6481C113.026 43.0969 112.97 43.5271 112.811 43.9386C112.663 44.3534 112.41 44.7461 112.053 45.1169C111.703 45.4843 111.252 45.8111 110.699 46.0976C110.146 46.384 109.619 46.5643 109.117 46.6387C108.625 46.7162 108.163 46.6977 107.732 46.5832C107.308 46.4652 106.921 46.2561 106.571 45.9559C106.231 45.6589 105.937 45.2707 105.689 44.7912ZM106.723 44.2933C106.92 44.6728 107.174 44.9425 107.484 45.1024C107.806 45.2655 108.174 45.3239 108.589 45.2777C109.008 45.2381 109.467 45.0889 109.966 44.8301C110.479 44.5644 110.882 44.2667 111.176 43.9371C111.47 43.6075 111.641 43.2612 111.689 42.8982C111.748 42.5384 111.679 42.1688 111.482 41.7892C111.296 41.4296 111.04 41.1649 110.716 40.9952C110.402 40.8287 110.028 40.7686 109.596 40.8151C109.171 40.8582 108.702 41.0125 108.189 41.2782C107.803 41.4784 107.481 41.696 107.222 41.9312C106.971 42.163 106.783 42.4038 106.659 42.6539C106.539 42.9105 106.482 43.1764 106.49 43.4513C106.5 43.7329 106.578 44.0136 106.723 44.2933ZM108.088 49.4541L115.196 47.3064L116.026 50.0525C116.138 50.4258 116.209 50.7766 116.238 51.1048C116.276 51.4381 116.273 51.7405 116.23 52.0122C116.189 52.291 116.107 52.539 115.985 52.7562C115.869 52.9712 115.714 53.1554 115.517 53.3088C115.328 53.46 115.1 53.5758 114.835 53.6561C114.583 53.732 114.342 53.7619 114.11 53.7459C113.885 53.7276 113.673 53.6623 113.474 53.5499C113.278 53.4447 113.094 53.2888 112.922 53.0823C112.759 52.8808 112.609 52.6321 112.473 52.3364L112.333 52.3787C112.39 52.722 112.389 53.0162 112.329 53.2613C112.273 53.5135 112.156 53.7368 111.98 53.9311C111.803 54.1254 111.56 54.3202 111.251 54.5155L109.884 55.3986L109.432 53.9017L110.71 53.1513C110.977 53 111.177 52.83 111.308 52.6416C111.441 52.4603 111.513 52.2583 111.524 52.0355C111.535 51.8128 111.497 51.5579 111.411 51.2707L111.04 50.043L108.498 50.811L108.088 49.4541ZM112.084 49.7274L112.475 51.0197C112.638 51.5581 112.862 51.937 113.147 52.1562C113.435 52.3827 113.787 52.433 114.204 52.3071C114.62 52.1813 114.888 51.9516 115.006 51.6181C115.127 51.2917 115.104 50.8521 114.937 50.2993L114.54 48.9854L112.084 49.7274ZM110.612 61.1442L118.023 59.3521L118.035 60.8933L111.858 62.1804L111.859 62.2929L118.057 63.627L118.072 65.4607L111.896 66.8828L111.897 67.0065L118.094 68.2056L118.106 69.6793L110.667 67.9727L110.651 65.9703L116.827 64.5819L116.827 64.4807L110.629 63.1916L110.612 61.1442ZM109.692 74.098C109.806 73.5702 109.992 73.1191 110.249 72.745C110.506 72.3708 110.824 72.0711 111.203 71.8459C111.587 71.6296 112.026 71.4943 112.522 71.44C113.017 71.3857 113.561 71.4226 114.155 71.5508C115.013 71.7359 115.689 72.0352 116.182 72.4487C116.684 72.8637 117.018 73.3579 117.186 73.9312C117.354 74.5045 117.367 75.1174 117.227 75.7699C117.117 76.2757 116.934 76.7158 116.677 77.0899C116.427 77.4657 116.11 77.7617 115.726 77.978C115.347 78.2032 114.902 78.3451 114.391 78.4035C113.887 78.4636 113.331 78.4279 112.722 78.2966C112.114 78.1653 111.592 77.9684 111.158 77.7058C110.729 77.4522 110.385 77.144 110.126 76.7811C109.874 76.4198 109.709 76.0121 109.63 75.5578C109.558 75.1125 109.578 74.6259 109.692 74.098ZM110.807 74.373C110.717 74.7909 110.74 75.1605 110.878 75.4818C111.022 75.812 111.268 76.0916 111.618 76.3205C111.966 76.5567 112.415 76.7341 112.965 76.8528C113.529 76.9746 114.03 77.002 114.466 76.9351C114.903 76.8681 115.255 76.7102 115.524 76.4612C115.798 76.2212 115.98 75.8922 116.07 75.4744C116.156 75.0785 116.128 74.7118 115.986 74.3742C115.849 74.0456 115.6 73.7616 115.237 73.5222C114.882 73.2844 114.422 73.1046 113.857 72.9828C113.432 72.891 113.045 72.8535 112.696 72.8703C112.355 72.8887 112.057 72.9548 111.802 73.0686C111.546 73.1897 111.333 73.3586 111.163 73.5752C110.992 73.7992 110.873 74.0651 110.807 74.373ZM108.57 79.2206L115.41 82.1085L114.294 84.7514C114.143 85.1107 113.973 85.4258 113.785 85.6966C113.602 85.9773 113.406 86.2083 113.2 86.3896C112.99 86.5779 112.769 86.7165 112.536 86.8054C112.31 86.8972 112.072 86.9394 111.823 86.9319C111.58 86.9273 111.332 86.871 111.076 86.7631C110.834 86.661 110.629 86.5296 110.461 86.369C110.299 86.2113 110.178 86.0259 110.097 85.8126C110.013 85.6062 109.971 85.3686 109.971 85.0998C109.974 84.8408 110.018 84.5539 110.102 84.2393L109.967 84.1824C109.792 84.4828 109.603 84.7083 109.401 84.8591C109.196 85.0168 108.963 85.1141 108.704 85.151C108.444 85.1878 108.133 85.1826 107.77 85.1353L106.154 84.9417L106.762 83.5011L108.225 83.7398C108.527 83.7943 108.789 83.791 109.011 83.7297C109.229 83.6753 109.413 83.566 109.564 83.4017C109.715 83.2374 109.849 83.0171 109.965 82.7407L110.464 81.5592L108.018 80.5265L108.57 79.2206ZM111.47 81.9836L110.944 83.2273C110.726 83.7455 110.656 84.1802 110.736 84.5313C110.813 84.8894 111.051 85.153 111.452 85.3222C111.853 85.4914 112.205 85.4856 112.51 85.3047C112.811 85.1307 113.074 84.7777 113.299 84.2457L113.833 82.9812L111.47 81.9836ZM105.376 86.38L111.586 90.4506L110.808 91.6361L107.967 89.7735C107.885 90.186 107.848 90.6055 107.855 91.0318C107.869 91.4623 107.923 91.879 108.018 92.2818C108.114 92.695 108.245 93.0768 108.41 93.427C108.577 93.7877 108.779 94.1033 109.014 94.374L108.126 95.7289C107.865 95.4147 107.64 95.0607 107.45 94.667C107.266 94.2773 107.121 93.8687 107.016 93.441C106.913 93.0236 106.848 92.6091 106.822 92.1975C106.802 91.7899 106.82 91.407 106.875 91.0488L106.753 90.9686C106.554 91.2593 106.343 91.4981 106.122 91.6849C105.897 91.8781 105.647 92.0194 105.373 92.1089C105.106 92.2025 104.815 92.2494 104.501 92.2498C104.187 92.2502 103.842 92.2081 103.467 92.1237L101.86 91.743L102.742 90.3975L103.965 90.7687C104.378 90.8778 104.739 90.9218 105.049 90.9007C105.359 90.8796 105.646 90.7765 105.911 90.5914C106.176 90.4062 106.436 90.1192 106.69 89.7303L107.054 89.1752L104.599 87.5655L105.376 86.38ZM95.8269 97.6388L97.5806 97.7631L98.9094 96.5996L100.058 97.9116L101.812 98.0359L101.696 99.7821L102.852 101.103L101.523 102.266L101.415 104.021L99.661 103.896L98.3406 105.053L97.1845 103.732L95.4298 103.624L95.5541 101.87L94.398 100.55L95.7185 99.3935L95.8269 97.6388ZM85.7058 104.471C86.2127 104.227 86.6997 104.08 87.1667 104.03C87.637 103.987 88.079 104.041 88.4926 104.191C88.9095 104.348 89.2948 104.604 89.6483 104.958C90.0019 105.313 90.3103 105.764 90.5737 106.311C90.8468 106.879 91.0147 107.418 91.0774 107.929C91.1333 108.443 91.0959 108.919 90.9651 109.356C90.8376 109.8 90.6186 110.193 90.3082 110.534C89.9977 110.874 89.6059 111.159 89.1328 111.386C88.7679 111.562 88.4072 111.677 88.0508 111.732C87.6944 111.787 87.3591 111.774 87.0451 111.692C86.7275 111.62 86.4411 111.483 86.1859 111.281C85.9339 111.086 85.7248 110.824 85.5588 110.497L86.6038 109.607C86.7434 109.914 86.9295 110.137 87.1622 110.274C87.395 110.412 87.6438 110.48 87.9089 110.477C88.1672 110.478 88.418 110.419 88.6613 110.302C88.8775 110.198 89.0727 110.05 89.2467 109.858C89.4139 109.67 89.5365 109.44 89.6144 109.17C89.6923 108.899 89.7072 108.584 89.659 108.224C89.614 107.871 89.4843 107.472 89.2697 107.026C88.9965 106.458 88.6943 106.038 88.363 105.764C88.025 105.494 87.67 105.344 87.2981 105.315C86.9227 105.296 86.5491 105.376 86.1774 105.555C85.7989 105.737 85.5339 105.956 85.3825 106.212C85.2342 106.475 85.1696 106.755 85.1885 107.054C85.2107 107.36 85.2865 107.665 85.4161 107.968L84.1981 108.317C84.0358 107.963 83.9306 107.605 83.8824 107.246C83.8342 106.886 83.8629 106.539 83.9686 106.205C84.0676 105.875 84.2585 105.562 84.5414 105.268C84.8243 104.974 85.2125 104.708 85.7058 104.471ZM78.4763 107.118C78.9981 106.979 79.4841 106.939 79.9343 106.997C80.3846 107.055 80.7963 107.202 81.1693 107.436C81.537 107.679 81.8579 108.009 82.1319 108.425C82.4059 108.841 82.6212 109.342 82.7779 109.929C83.0041 110.777 83.0458 111.515 82.903 112.143C82.762 112.778 82.4747 113.301 82.0409 113.712C81.6072 114.123 81.0679 114.414 80.4229 114.586C79.9229 114.72 79.4478 114.757 78.9975 114.699C78.5492 114.648 78.1411 114.501 77.7734 114.257C77.4004 114.023 77.0714 113.692 76.7862 113.263C76.503 112.842 76.2812 112.331 76.1206 111.729C75.9601 111.128 75.8977 110.574 75.9333 110.068C75.9637 109.57 76.0812 109.124 76.286 108.728C76.4927 108.339 76.7803 108.006 77.1488 107.729C77.5121 107.461 77.9546 107.258 78.4763 107.118ZM78.7396 108.236C78.3266 108.346 78.0085 108.536 77.7853 108.805C77.5569 109.083 77.4205 109.43 77.3761 109.845C77.3245 110.263 77.3712 110.743 77.5163 111.287C77.6652 111.845 77.8689 112.303 78.1275 112.661C78.386 113.019 78.6873 113.26 79.0313 113.386C79.37 113.521 79.7459 113.533 80.1589 113.423C80.5502 113.318 80.8637 113.126 81.0994 112.846C81.3298 112.574 81.4689 112.223 81.5166 111.791C81.5663 111.366 81.5166 110.875 81.3677 110.317C81.2556 109.897 81.1125 109.535 80.9385 109.232C80.7664 108.937 80.5717 108.701 80.3543 108.527C80.1296 108.354 79.8822 108.241 79.6121 108.189C79.3348 108.139 79.044 108.154 78.7396 108.236ZM73.4067 108.474L74.1173 115.864L72.7063 116L71.9957 108.609L73.4067 108.474ZM73.0819 108.505L73.1982 109.714L68.8757 110.13L68.7594 108.92L73.0819 108.505ZM67.3867 108.931L67.0761 116.35L65.6598 116.291L65.9704 108.872L67.3867 108.931ZM67.0607 108.918L67.0099 110.132L62.6712 109.95L62.722 108.736L67.0607 108.918ZM61.7189 108.654L57.7005 115.404L55.6626 114.982L54.6577 107.191L56.1779 107.506L56.8295 114.063L56.9837 114.095L60.2097 108.341L61.7189 108.654ZM60.0755 109.876L59.8723 110.856L55.2897 109.907L55.4928 108.926L60.0755 109.876ZM53.2996 106.745L50.4862 113.616L47.7481 112.495C47.3386 112.328 46.9849 112.142 46.6871 111.939C46.3893 111.736 46.1572 111.512 45.9907 111.265C45.8143 111.023 45.7106 110.761 45.6795 110.481C45.6483 110.201 45.6981 109.901 45.8288 109.582C45.9396 109.311 46.0918 109.098 46.2853 108.942C46.4689 108.791 46.7058 108.697 46.9958 108.662C47.2829 108.634 47.6273 108.673 48.0289 108.781L48.0929 108.625C47.4603 108.309 47.0531 107.948 46.8711 107.541C46.6794 107.138 46.6802 106.701 46.8734 106.229C47.0354 105.833 47.2725 105.542 47.5846 105.353C47.8869 105.169 48.2678 105.09 48.7272 105.116C49.1796 105.139 49.7078 105.274 50.3116 105.522L53.2996 106.745ZM51.6112 107.306L49.8517 106.585C49.3798 106.392 49.0029 106.323 48.7211 106.378C48.4296 106.437 48.2198 106.622 48.0919 106.935C47.9442 107.296 47.9826 107.627 48.2071 107.93C48.4248 108.23 48.8355 108.503 49.4393 108.751L50.7928 109.305L51.6112 107.306ZM50.4432 110.158L49.298 109.69C48.715 109.451 48.252 109.354 47.909 109.4C47.5591 109.444 47.3173 109.628 47.1837 109.954C47.0559 110.267 47.087 110.547 47.2772 110.795C47.4576 111.047 47.8011 111.277 48.3078 111.484L49.6717 112.043L50.4432 110.158ZM43.482 101.768C43.9355 102.061 44.2917 102.394 44.5508 102.767C44.8098 103.14 44.9777 103.543 45.0545 103.977C45.121 104.413 45.092 104.872 44.9677 105.354C44.8434 105.837 44.6163 106.333 44.2865 106.843C43.81 107.58 43.2911 108.106 42.7296 108.422C42.1641 108.744 41.5836 108.882 40.988 108.836C40.3924 108.791 39.8143 108.587 39.2538 108.224C38.8192 107.943 38.4724 107.616 38.2134 107.243C37.9503 106.877 37.7855 106.475 37.7191 106.039C37.6422 105.606 37.6669 105.139 37.7931 104.64C37.9151 104.148 38.1452 103.64 38.4832 103.117C38.8212 102.595 39.1898 102.176 39.589 101.863C39.9778 101.552 40.3878 101.339 40.8189 101.225C41.2459 101.117 41.6857 101.107 42.1384 101.194C42.5807 101.283 43.0286 101.475 43.482 101.768ZM42.8306 102.713C42.4716 102.481 42.1175 102.373 41.7682 102.388C41.4085 102.405 41.0599 102.537 40.7221 102.783C40.3781 103.025 40.0534 103.382 39.748 103.855C39.4344 104.34 39.2317 104.798 39.14 105.23C39.0483 105.662 39.0714 106.048 39.2093 106.387C39.3368 106.728 39.5801 107.015 39.9391 107.247C40.2791 107.467 40.6322 107.57 40.9981 107.557C41.3537 107.546 41.7076 107.413 42.0597 107.158C42.4078 106.91 42.7387 106.543 43.0522 106.058C43.2884 105.693 43.4604 105.344 43.5681 105.012C43.6717 104.686 43.7153 104.384 43.6989 104.105C43.6762 103.823 43.5935 103.564 43.4508 103.329C43.3019 103.089 43.0951 102.884 42.8306 102.713ZM39.0863 98.908L33.979 104.297L31.8967 102.324C31.6137 102.056 31.3783 101.786 31.1906 101.515C30.9924 101.245 30.8447 100.981 30.7476 100.724C30.645 100.461 30.5931 100.205 30.5917 99.9559C30.5851 99.712 30.6291 99.4748 30.7237 99.2441C30.8132 99.0189 30.9534 98.8056 31.1442 98.6041C31.3248 98.4136 31.5198 98.2678 31.7293 98.1667C31.9336 98.071 32.1499 98.0227 32.378 98.0219C32.6006 98.0159 32.8379 98.0599 33.0898 98.154C33.331 98.2483 33.5842 98.39 33.8492 98.5792L33.9498 98.473C33.7304 98.2031 33.5855 97.947 33.5154 97.7049C33.4398 97.4575 33.4303 97.2058 33.4871 96.9496C33.5439 96.6934 33.6581 96.4039 33.8298 96.081L34.5788 94.6364L35.7139 95.712L34.9765 96.9971C34.8191 97.2613 34.7303 97.5077 34.7099 97.7364C34.6841 97.9599 34.7216 98.1711 34.8224 98.37C34.9232 98.5689 35.0825 98.7715 35.3003 98.9779L36.2312 99.8601L38.0575 97.9329L39.0863 98.908ZM35.4806 100.652L34.5007 99.7235C34.0924 99.3366 33.7099 99.1188 33.3531 99.07C32.9909 99.0161 32.6602 99.147 32.361 99.4627C32.0618 99.7785 31.9434 100.111 32.0058 100.459C32.0627 100.802 32.3008 101.173 32.72 101.57L33.7162 102.514L35.4806 100.652ZM33.8526 93.8899L26.3666 96.2709L25.1227 94.6022L29.5429 88.1082L30.4707 89.3529L26.6052 94.6898L26.6994 94.8161L32.9315 92.6542L33.8526 93.8899ZM31.8124 93.7129L31.0096 94.3113L28.2127 90.559L29.0154 89.9606L31.8124 93.7129ZM28.5153 86.0867L21.938 89.532L21.275 88.2664L27.8523 84.8211L28.5153 86.0867ZM24.0275 90.9267L22.9612 91.4853L20.2467 86.3032L21.313 85.7446L24.0275 90.9267ZM26.2515 81.5403L19.3113 84.1793L18.7995 82.8333L25.7397 80.1943L26.2515 81.5403ZM24.537 75.1023C24.6594 75.6282 24.6842 76.1153 24.6114 76.5635C24.5387 77.0116 24.3792 77.4184 24.1331 77.7837C23.878 78.1434 23.5383 78.4535 23.1138 78.714C22.6893 78.9746 22.1812 79.1737 21.5895 79.3114C20.7349 79.5104 19.996 79.5284 19.3728 79.3654C18.7423 79.2042 18.2288 78.9002 17.8322 78.4535C17.4355 78.0068 17.1616 77.4583 17.0102 76.8082C16.8929 76.3042 16.8706 75.8281 16.9434 75.3799C17.0089 74.9335 17.1692 74.5304 17.4243 74.1707C17.6704 73.8054 18.0121 73.4871 18.4495 73.2159C18.8796 72.9463 19.3978 72.741 20.0041 72.5999C20.6103 72.4587 21.1659 72.4141 21.6709 72.466C22.1668 72.5122 22.6094 72.6441 22.9988 72.8614C23.381 73.0805 23.7045 73.3787 23.9694 73.7559C24.2254 74.1276 24.4145 74.5764 24.537 75.1023ZM23.4117 75.3296C23.3148 74.9132 23.1354 74.5892 22.8735 74.3575C22.6027 74.1203 22.2603 73.9728 21.8465 73.9151C21.4309 73.8502 20.9492 73.8814 20.4014 74.009C19.8389 74.1399 19.3747 74.3288 19.0086 74.5758C18.6426 74.8227 18.3913 75.116 18.2548 75.4558C18.1093 75.79 18.085 76.1653 18.1819 76.5817C18.2737 76.9761 18.4559 77.2957 18.7284 77.5402C18.992 77.7792 19.3388 77.9295 19.769 77.991C20.1919 78.0543 20.6845 78.0205 21.247 77.8896C21.6707 77.7909 22.0366 77.6595 22.3449 77.4954C22.6459 77.3329 22.8873 77.1458 23.069 76.9341C23.2491 76.715 23.3695 76.4714 23.4302 76.2031C23.4893 75.9276 23.4831 75.6364 23.4117 75.3296ZM23.3728 69.9914L15.9517 70.2318L15.8916 68.3765L21.2973 64.6445L21.294 64.5433L15.7761 64.8121L15.7313 63.4291L23.1524 63.1887L23.207 64.8753L17.5928 68.7716L17.5964 68.8841L23.328 68.6084L23.3728 69.9914ZM24.7505 54.3615L23.239 55.2593L22.8106 56.9728L21.1189 56.5499L19.6074 57.4476L18.7069 55.947L17.0043 55.5214L17.4326 53.8079L16.5212 52.3045L18.0328 51.4067L18.4584 49.7041L20.161 50.1297L21.6644 49.2184L22.5622 50.7299L24.2648 51.1555L23.8392 52.8581L24.7505 54.3615Z" fill="black"/>
<g clip-path="url(#clip1_1117_455)">
<path d="M68.8957 56.875C69.3834 57.0176 69.8029 57.2284 70.2351 57.4907C70.3351 57.5512 70.3351 57.5512 70.4371 57.6129C71.0519 57.993 71.6029 58.4292 72.1457 58.9063C72.2311 58.9781 72.3164 59.05 72.4044 59.1241C74.9813 61.3448 76.5285 64.6802 76.8176 68.0469C77.0449 71.9251 75.896 75.5437 73.3645 78.5078C73.0579 78.8408 72.7409 79.1622 72.421 79.4824C72.3316 79.5727 72.2421 79.663 72.1499 79.7561C71.9074 80.0005 71.6646 80.2445 71.4214 80.4882C71.2685 80.6415 71.1157 80.7949 70.963 80.9483C70.4275 81.4863 69.8914 82.0237 69.3549 82.5606C68.8592 83.0567 68.3649 83.554 67.8712 84.052C67.4435 84.4832 67.0149 84.9133 66.5855 85.3428C66.3307 85.5977 66.0764 85.8529 65.823 86.1092C64.4165 87.531 62.9897 88.8853 61.1452 89.7178C61.0131 89.7789 61.0131 89.7789 60.8782 89.8414C59.0155 90.6772 57.1487 91.0433 55.1086 91.0317C55.037 91.0315 54.9655 91.0312 54.8917 91.031C53.8124 91.0251 52.7769 90.9901 51.7317 90.6953C51.6506 90.6729 51.5695 90.6505 51.4859 90.6275C49.1995 89.9763 47.2638 88.876 45.5363 87.2422C45.4476 87.1611 45.3588 87.0801 45.2674 86.9966C42.9962 84.8459 41.5209 81.6593 41.3516 78.532C41.3415 78.126 41.3382 77.7205 41.3405 77.3145C41.3408 77.2429 41.341 77.1713 41.3413 77.0976C41.3472 76.0182 41.3822 74.9827 41.677 73.9375C41.6994 73.8564 41.7217 73.7753 41.7448 73.6918C42.0299 72.6906 42.3882 71.7346 42.864 70.8081C42.8994 70.7379 42.9348 70.6678 42.9713 70.5955C43.8896 68.8963 45.263 67.5487 46.6197 66.2014C46.8786 65.9439 47.1365 65.6853 47.3945 65.4269C47.8269 64.9942 48.2602 64.5624 48.6939 64.131C49.193 63.6346 49.6908 63.137 50.1879 62.6387C50.6701 62.1553 51.1532 61.6729 51.6368 61.1908C51.8409 60.9873 52.0447 60.7835 52.2482 60.5794C52.5328 60.2943 52.8186 60.0104 53.1046 59.7267C53.1873 59.6434 53.2701 59.5602 53.3554 59.4745C54.7539 58.0938 54.7539 58.0938 55.1848 58.0938C55.1806 58.1707 55.1765 58.2477 55.1722 58.3271C55.0589 60.5445 55.0416 62.6651 55.6327 64.8239C55.655 64.9063 55.6772 64.9888 55.7001 65.0738C55.7206 65.1456 55.7412 65.2174 55.7623 65.2914C55.804 65.5747 55.7795 65.7399 55.6926 66.0156C55.5128 66.2308 55.3369 66.4197 55.1362 66.6133C55.0492 66.6997 55.0492 66.6997 54.9605 66.7877C54.8345 66.9125 54.7081 67.0368 54.5813 67.1606C54.3795 67.3576 54.1791 67.5558 53.9789 67.7543C53.5526 68.1767 53.1246 68.5974 52.6965 69.0181C52.2029 69.5034 51.7101 69.9895 51.2183 70.4768C51.0225 70.6703 50.8257 70.8628 50.6289 71.0552C48.9182 72.74 47.7096 74.5656 47.5676 77.0363C47.5676 79.1712 48.3271 81.1165 49.802 82.6719C51.2746 84.0862 53.2526 84.8249 55.2863 84.8047C58.4661 84.5916 60.3698 82.6992 62.5024 80.5645C62.6762 80.3911 62.85 80.2178 63.0238 80.0444C63.3858 79.6832 63.7474 79.3216 64.1087 78.9597C64.5696 78.4982 65.0317 78.0379 65.4941 77.5778C65.8524 77.221 66.2101 76.8634 66.5676 76.5056C66.7376 76.3356 66.9079 76.1659 67.0784 75.9964C68.9952 74.0897 70.5377 72.132 70.5715 69.3164C70.5443 67.2219 69.7141 65.4071 68.2982 63.8796C67.3496 62.8448 67.0152 61.7437 67.0426 60.3551C67.151 58.9172 67.8428 57.8227 68.8957 56.875Z" fill="black"/>
<path d="M83.0119 39.3046C83.093 39.327 83.1741 39.3494 83.2576 39.3724C85.5428 40.0233 87.4818 41.1229 89.2072 42.7577C89.2983 42.8423 89.3894 42.9269 89.4833 43.014C91.2733 44.7286 92.4618 46.9663 93.0666 49.3593C93.1009 49.488 93.1352 49.6167 93.1705 49.7493C93.601 51.6942 93.6081 54.142 93.0666 56.0624C93.0442 56.1435 93.0218 56.2246 92.9987 56.3081C92.7136 57.3093 92.3553 58.2653 91.8796 59.1918C91.8441 59.262 91.8087 59.3321 91.7722 59.4044C90.8539 61.1036 89.4805 62.4512 88.1239 63.7985C87.8649 64.056 87.6071 64.3146 87.349 64.573C86.9166 65.0057 86.4834 65.4375 86.0496 65.8689C85.5506 66.3653 85.0528 66.8629 84.5557 67.3612C84.0734 67.8446 83.5903 68.327 83.1068 68.8091C82.9027 69.0126 82.6989 69.2164 82.4953 69.4205C82.2107 69.7056 81.9249 69.9895 81.639 70.2732C81.5562 70.3565 81.4735 70.4397 81.3882 70.5254C79.9897 71.9062 79.9897 71.9061 79.5588 71.9061C79.5661 71.793 79.5734 71.6799 79.581 71.5634C79.719 69.3439 79.6875 67.2468 79.1108 65.0865C79.0886 65.0015 79.0663 64.9165 79.0434 64.8289C79.0229 64.754 79.0024 64.679 78.9813 64.6018C78.9422 64.3427 78.9556 64.2309 79.051 63.9843C79.2312 63.7778 79.4114 63.5885 79.6074 63.3981C79.6653 63.3406 79.7233 63.283 79.7831 63.2238C79.9091 63.0988 80.0356 62.9743 80.1623 62.85C80.3638 62.6524 80.5643 62.4539 80.7646 62.2551C81.263 61.7607 81.763 61.2681 82.263 60.7754C82.6845 60.36 83.1052 59.944 83.5252 59.5271C83.7211 59.3332 83.9178 59.1402 84.1147 58.9473C85.8235 57.2598 87.0339 55.4354 87.1759 52.9636C87.1759 50.8287 86.4165 48.8834 84.9416 47.328C83.469 45.9137 81.491 45.175 79.4572 45.1952C76.3594 45.4028 74.5027 47.1719 72.4196 49.2569C72.241 49.4351 72.0624 49.6133 71.8838 49.7915C71.511 50.1635 71.1386 50.5359 70.7665 50.9085C70.2917 51.3839 69.8157 51.8582 69.3395 52.3321C68.9708 52.6993 68.6028 53.0671 68.2351 53.4352C68.06 53.6103 67.8846 53.7851 67.709 53.9597C65.7986 55.8603 64.2036 57.8232 64.1784 60.6454C64.2429 62.7593 64.9731 64.4805 66.4191 66.0092C67.3759 67.047 67.7431 68.2658 67.7073 69.6575C67.6267 71.103 66.885 72.1728 65.8478 73.1249C63.4644 72.202 61.4075 70.2947 60.0588 68.1483C60.0193 68.086 59.9798 68.0236 59.9391 67.9593C58.7759 66.0902 58.0036 63.8622 57.926 61.6483C57.9207 61.519 57.9155 61.3896 57.9101 61.2564C57.8618 59.4738 58.1134 57.7339 58.7385 56.0624C58.7647 55.9917 58.7909 55.9211 58.8178 55.8483C59.7816 53.2909 61.3453 51.4771 63.2615 49.5654C63.4692 49.358 63.6764 49.1502 63.8837 48.9423C64.3734 48.4512 64.8639 47.9608 65.3549 47.471C65.8578 46.9693 66.3593 46.4663 66.8603 45.9626C67.2939 45.5267 67.7284 45.0916 68.1635 44.6571C68.4218 44.3991 68.6798 44.1409 68.9371 43.8818C70.2766 42.5339 71.577 41.3238 73.2809 40.4472C73.371 40.4006 73.461 40.3541 73.5538 40.3061C74.4431 39.8603 75.3459 39.5479 76.3088 39.3046C76.4375 39.2703 76.5662 39.236 76.6987 39.2006C78.6437 38.7702 81.0914 38.763 83.0119 39.3046Z" fill="black"/>
<path d="M73.9482 84.3031C74.4323 84.7738 74.5585 85.4581 74.7232 86.091C74.7891 86.3391 74.8609 86.585 74.9337 86.8311C74.982 86.9998 75.0302 87.1685 75.0781 87.3373C75.1012 87.4153 75.1244 87.4933 75.1482 87.5737C75.3349 88.2609 75.3437 88.8692 75.021 89.5146C74.6949 89.8847 74.4274 90.0528 73.9332 90.118C73.3537 90.145 72.9965 90.082 72.5517 89.6796C72.236 89.2567 72.0641 88.8813 71.9281 88.3728C71.9106 88.3079 71.8932 88.2431 71.8752 88.1763C71.8388 88.0401 71.803 87.9037 71.7677 87.7671C71.7141 87.5603 71.6582 87.3542 71.602 87.1481C71.1916 85.6114 71.1916 85.6114 71.4473 84.8871C71.7013 84.5061 71.9935 84.1782 72.4422 84.0286C72.9718 83.937 73.4985 83.9961 73.9482 84.3031Z" fill="black"/>
<path d="M46.0113 57.5541C46.1425 57.5877 46.2738 57.6212 46.405 57.6547C47.1421 57.855 47.6518 58.0372 48.1758 58.6015C48.4377 59.0924 48.4347 59.5981 48.2774 60.1249C48.0556 60.4956 47.7956 60.7586 47.4268 60.9819C46.5874 61.1618 45.8275 60.9348 45.0181 60.7142C44.8117 60.6582 44.6048 60.6045 44.3978 60.551C44.2646 60.5155 44.1314 60.4798 43.9983 60.4439C43.879 60.412 43.7597 60.3801 43.6368 60.3472C43.0144 60.1236 42.5747 59.8121 42.2852 59.2109C42.1935 58.6446 42.2234 58.1176 42.551 57.6343C43.4787 56.6438 44.8915 57.2484 46.0113 57.5541Z" fill="black"/>
<path d="M83.2441 78.6808C83.6089 78.8942 83.8943 79.1504 84.1934 79.4504C84.2438 79.5007 84.2941 79.551 84.346 79.6029C84.4512 79.7083 84.5561 79.8142 84.6606 79.9204C84.8203 80.0825 84.9813 80.2432 85.1426 80.4038C86.1868 81.4537 86.1868 81.4537 86.1973 82.2021C86.1878 82.7095 86.1007 82.9963 85.7529 83.3828C85.3953 83.6971 85.0767 83.8053 84.604 83.8208C84.4915 83.8265 84.4915 83.8265 84.3767 83.8323C83.7844 83.7293 83.3438 83.2394 82.933 82.8278C82.8802 82.7754 82.8275 82.7231 82.7731 82.6692C82.6626 82.5593 82.5523 82.4491 82.4423 82.3386C82.2743 82.1703 82.105 82.0034 81.9356 81.8365C81.8279 81.729 81.7202 81.6215 81.6127 81.5138C81.5623 81.4644 81.512 81.415 81.4601 81.364C81.0692 80.9679 80.9021 80.6513 80.8398 80.101C80.8934 79.5743 81.0406 79.1393 81.4373 78.7724C82.0183 78.39 82.6325 78.3649 83.2441 78.6808Z" fill="black"/>
<path d="M50.1313 46.179C50.2261 46.1752 50.3209 46.1714 50.4186 46.1675C51.2033 46.2818 51.7722 47.0301 52.3086 47.5688C52.4607 47.7213 52.6142 47.8723 52.7678 48.0234C52.8659 48.1213 52.964 48.2193 53.062 48.3174C53.1942 48.4491 53.1942 48.4491 53.3291 48.5835C53.751 49.0748 53.9251 49.5093 53.8983 50.1471C53.8407 50.5267 53.7189 50.8031 53.4575 51.0857C52.9801 51.4358 52.5278 51.5689 51.9341 51.492C51.4375 51.2861 51.089 50.9952 50.7169 50.6164C50.6619 50.5614 50.6069 50.5065 50.5502 50.4498C50.4348 50.3342 50.3198 50.2182 50.2051 50.1018C50.0298 49.9241 49.8532 49.7478 49.6763 49.5716C49.5639 49.4587 49.4517 49.3457 49.3395 49.2326C49.2869 49.1801 49.2343 49.1276 49.1801 49.0736C48.7833 48.6689 48.5538 48.3704 48.5508 47.7976C48.562 47.3688 48.6433 47.0801 48.8872 46.7185C49.3099 46.3371 49.5665 46.1936 50.1313 46.179Z" fill="black"/>
<path d="M89.8418 69.2857C90.0464 69.3419 90.2515 69.3955 90.4568 69.4488C90.5891 69.4844 90.7213 69.5201 90.8535 69.5559C91.0305 69.6038 91.0305 69.6038 91.2111 69.6526C91.6731 69.8202 92.0376 70.0308 92.3408 70.4212C92.5529 70.9036 92.5208 71.3905 92.4579 71.9062C92.2355 72.3756 92.0003 72.5872 91.5438 72.8202C90.6095 72.9734 89.7046 72.6971 88.8143 72.4394C88.6832 72.4035 88.552 72.3678 88.4208 72.3322C87.0325 71.941 87.0325 71.941 86.5835 71.3595C86.3685 70.8743 86.38 70.3929 86.4657 69.8749C87.1912 68.5131 88.616 68.9474 89.8418 69.2857Z" fill="black"/>
<path d="M61.6843 39.9142C62.1584 40.1388 62.3566 40.3736 62.5984 40.8283C62.742 41.2508 62.8545 41.6814 62.9685 42.1126C63.0232 42.3181 63.08 42.5228 63.1369 42.7276C63.6112 44.4747 63.6112 44.4747 63.2458 45.2336C62.9057 45.6096 62.6477 45.8696 62.1291 45.9453C61.6744 45.9638 61.3489 45.9373 60.9289 45.7541C60.2733 45.1144 60.0964 44.1915 59.8735 43.3314C59.8182 43.12 59.7597 42.9096 59.7011 42.6991C59.4994 41.9467 59.3764 41.3697 59.6531 40.6252C60.254 39.901 60.7798 39.8173 61.6843 39.9142Z" fill="black"/>
</g>
</g>
<defs>
<clipPath id="clip0_1117_455">
<rect width="133" height="130" fill="white"/>
</clipPath>
<clipPath id="clip1_1117_455">
<rect width="52" height="52" fill="white" transform="translate(41.3711 39)"/>
</clipPath>
</defs>
</svg>
